<svg width="196" height="32" viewBox="0 0 196 32" fill="none" xmlns="http://www.w3.org/2000/svg">
<path d="M62.1664 27.0304C59.4467 27.0304 58.9841 25.7471 58.9841 23.8906V18.8664C58.9841 16.7366 58.2225 15.7809 56.7538 15.7809C54.7413 15.7809 54.2518 16.8458 54.2518 18.9757V27.0304H52.511C50.0359 27.0304 49.084 25.9928 49.084 23.8906V6.82483H50.7431C52.8918 6.82483 54.1155 7.86243 54.1155 9.8011V13.6784C54.8771 12.477 56.1282 11.5759 58.4945 11.5759C61.5136 11.5759 64.1519 13.9242 64.1519 17.9927V27.0304H62.1664Z" fill="#0E4158"/>
<path d="M74.7868 11.6032C78.8666 11.6032 82.5382 14.716 82.5382 19.3576C82.5382 24.2726 79.5735 27.44 74.4057 27.44C70.1358 27.44 66.6543 24.2728 66.6543 19.8494C66.6543 14.8798 70.0811 11.6032 74.7868 11.6032ZM74.4601 15.6987C73.0458 15.6987 71.7674 17.2005 71.7674 19.2484C71.7674 22.1427 72.9098 23.3988 74.7321 23.3988C76.3637 23.3988 77.4245 21.897 77.4245 19.8218C77.4248 17.1189 76.2552 15.6987 74.4601 15.6987Z" fill="#0E4158"/>
<path d="M97.9328 27.0305C95.6484 27.0305 94.9409 26.2659 94.9409 23.9723V18.7024C94.9409 16.6821 94.2609 15.781 92.5202 15.781C91.0243 15.781 90.2083 16.7913 90.2083 18.6207V27.0305H88.4676C86.2645 27.0305 85.0405 26.1567 85.0405 23.9723V18.7024C85.0405 14.3881 87.8961 11.576 92.6559 11.576C97.9597 11.576 100.108 14.3884 100.108 18.8392V27.0305H97.9328Z" fill="#0E4158"/>
<path d="M109.955 21.3783H107.725C108.024 22.88 109.248 23.59 111.397 23.59C113.79 23.59 115.286 23.2077 116.129 22.6343H116.32V23.8357C116.32 25.7471 114.769 27.4673 110.499 27.4673C105.332 27.4673 102.612 23.9722 102.612 19.8219C102.612 15.2619 105.685 11.5486 110.309 11.5486C114.226 11.5486 117.272 13.7604 117.272 17.5831C117.272 20.5867 115.014 21.3783 109.955 21.3783ZM110.309 15.4257C108.486 15.4257 107.725 16.5998 107.589 18.047H109.602C112.05 18.047 112.485 17.6647 112.485 17.0094C112.485 16.2451 111.805 15.4257 110.309 15.4257Z" fill="#0E4158"/>
<path d="M131.08 23.0712C126.891 31.1535 125.83 31.9727 122.703 31.9727C121.044 31.9727 119.657 31.0716 119.657 29.3787V28.1224L121.887 27.9585C123.246 27.8493 123.872 27.3032 124.416 26.0745C122.267 22.8524 119.52 16.0264 118.922 12.0123H121.615C122.893 12.0123 124.226 12.8041 124.525 14.1421C125.041 16.5176 126.075 19.412 126.864 21.2414C127.979 18.9751 129.148 14.9339 129.475 12.0123H131.95C133.446 12.0123 134.153 12.7222 134.153 13.9236C134.153 15.5079 132.739 19.8765 131.08 23.0712Z" fill="#0E4158"/>
<path d="M151.144 23.8904C151.171 24.3546 151.171 24.8734 151.171 25.4195C151.171 29.0784 148.07 32 143.337 32C139.067 32 137.408 30.0887 137.408 28.1773V26.5663H137.571C138.496 27.413 140.237 27.9042 142.657 27.9042C144.833 27.9042 146.003 26.7028 146.003 25.0918C146.003 24.8461 145.949 24.4911 145.949 24.218V23.6995C145.622 24.6549 144.425 25.5836 142.929 25.5836C139.149 25.5836 136.103 23.6722 136.103 19.003C136.103 14.8799 139.339 11.576 144.425 11.576C148.968 11.576 151.089 14.2246 151.089 18.3204V22.2796C151.089 22.6343 151.116 23.1804 151.144 23.8904ZM141.243 18.5112C141.243 20.7503 142.277 21.5694 143.827 21.5694C145.269 21.5694 146.057 20.4499 146.057 18.757C146.057 16.5453 145.241 15.7534 143.691 15.7534C142.141 15.7534 141.243 16.7637 141.243 18.5112Z" fill="#0E4158"/>
<path d="M160.519 27.44C157.636 27.44 154.127 26.075 154.127 22.6616C154.127 19.3306 156.52 17.6374 161.96 17.6374H162.695V17.0094C162.695 15.7807 161.743 15.4803 159.703 15.4803C156.901 15.4803 155.868 16.1357 154.807 17.1186H154.671V15.2892C154.671 13.4324 156.602 11.5757 160.872 11.5757C165.007 11.5757 167.699 13.6782 167.699 18.1016V20.4226C167.699 25.8836 165.958 27.44 160.519 27.44ZM162.803 20.8597H161.77C159.811 20.8597 159.022 21.351 159.022 22.3615C159.022 23.3169 159.621 23.8087 161.062 23.8087C161.987 23.8087 162.803 23.3445 162.803 21.9793V20.8597Z" fill="#0E4158"/>
<path d="M173.194 11.1663C171.698 11.1663 170.474 10.0195 170.474 8.59965C170.474 7.17978 171.698 6.03296 173.194 6.03296C174.69 6.03296 175.886 7.17978 175.886 8.59965C175.886 10.0195 174.69 11.1663 173.194 11.1663ZM175.642 27.2488C172.895 27.2488 170.746 25.8839 170.746 22.3342V12.477H172.024C174.962 12.477 175.914 13.3235 175.914 16.054V21.5694C175.914 22.9073 176.539 23.3169 177.981 23.3169H178.607V24.846C178.606 26.6481 177.246 27.2488 175.642 27.2488Z" fill="#0E4158"/>
<path d="M193.638 27.0305C191.354 27.0305 190.646 26.2659 190.646 23.9723V18.7024C190.646 16.6821 189.967 15.781 188.226 15.781C186.73 15.781 185.914 16.7913 185.914 18.6207V27.0305H184.173C181.97 27.0305 180.746 26.1567 180.746 23.9723V18.7024C180.746 14.3881 183.602 11.576 188.362 11.576C193.665 11.576 195.814 14.3884 195.814 18.8392V27.0305H193.638Z" fill="#0E4158"/>
<path d="M3.72241 12.9783C3.53007 24.6849 13.7052 28.9761 25.859 28.9761C31.4977 28.9761 36.0688 24.3871 36.0688 18.7263C36.0688 13.0655 31.4977 8.47651 25.859 8.47651C20.2202 8.47651 3.8004 8.22407 3.72241 12.9783Z" fill="#FBD63B"/>
<path d="M27.8045 18.9049C29.3499 18.9049 30.6027 17.6472 30.6027 16.0958C30.6027 14.5444 29.3499 13.2867 27.8045 13.2867C26.2591 13.2867 25.0063 14.5444 25.0063 16.0958C25.0063 17.6472 26.2591 18.9049 27.8045 18.9049Z" fill="#0E4158"/>
<path d="M27.095 16.2861C27.5913 16.2861 27.9936 15.8822 27.9936 15.3839C27.9936 14.8857 27.5913 14.4818 27.095 14.4818C26.5986 14.4818 26.1963 14.8857 26.1963 15.3839C26.1963 15.8822 26.5986 16.2861 27.095 16.2861Z" fill="white"/>
<path d="M25.0827 8.60919L11.8122 19.9319C10.5655 21.0821 8.87997 21.7511 7.05543 21.6558C3.45047 21.4677 0.67979 18.3814 0.866851 14.7621C1.05391 11.1427 4.1285 8.36121 7.73373 8.54929L25.0827 8.60919Z" fill="white"/>
<path d="M37.8366 3.76722C36.8028 3.49611 35.7492 4.00182 35.2877 4.92295C32.8698 5.23223 30.7008 6.34533 28.9001 8.20487C28.5393 8.11237 28.1713 8.03909 27.7972 7.98392C28.2171 6.56043 28.9442 5.33755 29.9886 4.33589C30.4724 4.51003 31.0177 4.51922 31.5351 4.31973C32.6824 3.87755 33.2553 2.58529 32.8148 1.43373C32.3744 0.282177 31.0874 -0.293183 29.9401 0.148994C28.9423 0.533497 28.38 1.56079 28.5399 2.57944C27.0198 3.99764 25.984 5.7839 25.4728 7.86607C25.0806 7.86523 24.6585 7.86439 24.2041 7.86439C23.1686 7.86439 21.9836 7.86913 20.7149 7.89086L7.60756 7.84573C7.47962 7.83904 7.35278 7.8357 7.22622 7.8357C3.40423 7.8357 0.21058 10.8434 0.00991903 14.7194C-0.174922 18.2903 2.24356 21.39 5.59734 22.1676C5.59818 22.1684 5.59873 22.1695 5.59956 22.1704L2.14919 28.0237L9.29722 25.5774C13.5966 28.3963 19.6308 29.5854 26.2135 29.5854C32.1876 29.5854 37.0304 24.7237 37.0304 18.7263C37.0304 14.5536 34.6849 10.9329 31.2462 9.11458C32.4887 8.06027 33.8925 7.41859 35.4456 7.1982C35.7379 7.62283 36.1755 7.9491 36.7117 8.0898C37.9007 8.40158 39.1163 7.68663 39.4269 6.49328C39.7378 5.29937 39.0256 4.079 37.8366 3.76722ZM2.27325 14.8378C2.41036 12.1875 4.58599 10.1115 7.22595 10.1115C7.31337 10.1115 7.40191 10.1137 7.48961 10.1185L7.54456 10.1213L7.59951 10.1215L20.66 10.1664L10.6519 18.706L10.6183 18.7347L10.5858 18.7645C9.66524 19.614 8.47571 20.0815 7.23649 20.0815C7.14962 20.0815 7.06137 20.0793 6.97422 20.0746C4.24018 19.9322 2.13115 17.5828 2.27325 14.8378ZM8.68081 22.2091C9.98552 21.9408 11.1681 21.3175 12.1198 20.4398L12.603 20.0278C12.616 21.7424 13.0196 23.5184 13.8133 25.3453C11.7529 24.5395 10.0335 23.4888 8.68081 22.2091ZM16.8377 26.2943C15.0664 23.2623 14.4878 20.4371 15.1172 17.8821L18.6245 14.8896C18.1643 16.1226 17.8546 17.4889 17.8446 18.9603C17.8252 21.8051 18.9131 24.5119 21.0749 27.0371C19.5665 26.8677 18.1527 26.6189 16.8377 26.2943ZM25.3437 10.1413C25.6548 10.1419 25.9457 10.1424 26.2135 10.1424C30.9281 10.1424 34.7637 13.993 34.7637 18.726C34.7637 23.459 30.9281 27.3096 26.2135 27.3096C25.6304 27.3096 25.0587 27.299 24.4964 27.2804C21.5689 24.6727 20.0913 21.8798 20.111 18.9757C20.1449 13.9791 24.5511 10.1778 24.5955 10.1402L25.3437 10.1413Z" fill="#0E4158"/>
</svg>
